<svg width="44" height="40" viewBox="0 0 44 40" fill="none" xmlns="http://www.w3.org/2000/svg">
<path d="M42.0959 26.2488C40.6924 28.789 39.0082 29.4946 38.3065 29.7769C38.1661 29.7769 38.0258 29.918 38.0258 30.0591C38.0258 30.2002 37.8854 30.3414 38.0258 30.3414C38.1661 31.1881 38.3065 33.0227 36.903 35.4218C35.0784 38.5265 31.1486 40.6433 27.0784 38.2442C22.7275 35.704 22.5872 28.5068 22.5872 24.9787C22.5872 24.6964 22.7275 24.5553 23.0082 24.5553C23.5696 24.4142 24.2714 23.9908 24.6924 23.5675C24.8328 23.4263 25.2538 23.2852 25.3942 23.5675C26.3766 24.4142 27.4994 25.8254 27.9205 26.531C28.0608 26.6722 28.3416 26.8133 28.4819 26.6722C29.324 26.2488 30.1661 26.1077 30.7275 26.2488C30.8679 26.2488 30.8679 26.2488 31.0082 26.1077V25.8254C30.7275 25.4021 30.3065 24.6964 30.3065 23.5675C30.3065 23.2852 30.1661 23.1441 29.8854 23.1441C29.0433 23.1441 27.3591 22.8619 26.0959 22.4385C25.8152 22.2974 25.6749 22.0151 25.8152 21.7329C25.9556 21.0273 25.9556 20.4628 25.8152 19.7572C25.8152 19.4749 25.8152 19.3338 26.0959 19.1927C29.0433 17.3581 35.4994 13.9711 39.8503 16.3702C43.6398 18.7693 43.7801 23.1441 42.0959 26.2488ZM20.4819 24.4142C19.9205 24.2731 19.2187 23.8497 18.7977 23.4263C18.6573 23.2852 18.2363 23.1441 18.0959 23.4263C17.1135 24.2731 15.9907 25.6843 15.5696 26.3899C15.4293 26.531 15.1486 26.6722 15.0082 26.531C14.1661 26.1077 13.324 25.9666 12.7626 26.1077C12.6223 26.1077 12.6223 26.1077 12.4819 25.9666V25.6843C12.7626 25.2609 13.1837 24.5553 13.1837 23.4263C13.1837 23.1441 13.324 23.003 13.6047 23.003C14.4468 23.003 16.131 22.7207 17.3942 22.2974C17.6749 22.1562 17.8152 21.874 17.6749 21.5917C17.5345 20.8861 17.5345 20.3217 17.6749 19.616C17.6749 19.3338 17.6749 19.1927 17.3942 19.0515C14.4468 17.217 7.99067 13.83 3.6398 16.2291C-0.570729 18.6282 -0.711081 23.1441 1.11348 26.2488C2.51699 28.789 4.2012 29.4946 4.90295 29.7769C5.0433 29.7769 5.18365 29.918 5.18365 30.0591C5.18365 30.2002 5.32401 30.3414 5.18365 30.3414C5.0433 31.1881 4.90295 33.0227 6.30646 35.4218C8.13102 38.5265 12.0608 40.6433 16.131 38.2442C20.4819 35.704 20.6222 28.5068 20.6222 24.9787C20.903 24.6964 20.7626 24.5553 20.4819 24.4142ZM24.131 20.6039C24.131 19.1927 23.0082 18.2048 21.7451 18.2048C20.3415 18.2048 19.3591 19.3338 19.3591 20.6039C19.3591 22.0151 20.4819 23.003 21.7451 23.003C23.0082 23.003 24.131 21.874 24.131 20.6039ZM18.2363 17.7814C18.3766 17.9226 18.6573 17.7814 18.7977 17.6403C19.2187 17.217 19.7801 16.7936 20.4819 16.6525C20.7626 16.5113 20.903 16.3702 20.903 16.088C20.6223 14.8179 19.9205 13.1244 19.6398 12.4188C19.4994 12.1365 19.6398 11.9954 19.7801 11.8543C20.6223 11.2898 21.0433 10.5842 21.324 10.1608C21.324 10.0197 21.4644 10.0197 21.6047 10.0197C21.7451 10.0197 21.7451 10.0197 21.8854 10.1608C22.1661 10.7253 22.5872 11.4309 23.4293 11.8543C23.5696 11.9954 23.71 12.2777 23.5696 12.4188C23.2889 13.1244 22.5872 14.6767 22.3065 16.088C22.3065 16.3702 22.4468 16.6525 22.7275 16.6525C23.4293 16.7936 23.9907 17.217 24.4117 17.6403C24.5521 17.7814 24.8328 17.7814 24.9731 17.7814C28.0608 16.088 34.2363 12.2777 34.2363 7.19725C34.2363 2.39908 30.4468 0 26.938 0C24.131 0 22.5872 0.987856 22.0258 1.55235C21.8854 1.69347 21.8854 1.69347 21.7451 1.69347C21.6047 1.69347 21.4644 1.69347 21.4644 1.55235C20.903 0.987856 19.3591 0 16.5521 0C12.903 0 9.25383 2.39908 9.25383 7.19725C9.11348 12.2777 15.2889 16.088 18.2363 17.7814Z" fill="white"/>
</svg>
